HIERARCHY
ROOT Hips
{
	OFFSET 0.000000 0.000000 0.000000
	CHANNELS 6 Xposition Yposition Zposition Zrotation Yrotation Xrotation 
	JOINT LeftUpLeg_virtual
	{
		OFFSET 0.000000 0.000000 0.000000
		CHANNELS 3 Zrotation Yrotation Xrotation
		JOINT LeftUpLeg
		{
			OFFSET 8.479694 -4.795517 -0.379053
			CHANNELS 3 Zrotation Yrotation Xrotation
			JOINT LeftLeg
			{
				OFFSET 0.485052 -32.551468 0.112863
				CHANNELS 3 Zrotation Yrotation Xrotation
				JOINT LeftFoot
				{
					OFFSET 0.438033 -32.635670 -3.012641
					CHANNELS 3 Zrotation Yrotation Xrotation
					JOINT LeftToeBase
					{
						OFFSET 0.970169 -13.225353 11.864223
						CHANNELS 3 Zrotation Yrotation Xrotation
						End Site
						{
							OFFSET 0.000000 0.000000 0.000000
						}
					}
				}
			}
		}
	}
	JOINT RightUpLeg_virtual
	{
		OFFSET 0.000000 0.000000 0.000000
		CHANNELS 3 Zrotation Yrotation Xrotation
		JOINT RightUpLeg
		{
			OFFSET -8.479694 -4.795517 -0.379053
			CHANNELS 3 Zrotation Yrotation Xrotation
			JOINT RightLeg
			{
				OFFSET -0.484100 -32.551483 0.112903
				CHANNELS 3 Zrotation Yrotation Xrotation
				JOINT RightFoot
				{
					OFFSET -0.438985 -32.635651 -3.012681
					CHANNELS 3 Zrotation Yrotation Xrotation
					JOINT RightToeBase
					{
						OFFSET -0.970169 -13.225354 11.864223
						CHANNELS 3 Zrotation Yrotation Xrotation
						End Site
						{
							OFFSET 0.000000 0.000000 0.000000
						}
					}
				}
			}
		}
	}
	JOINT Spine_virtual
	{
		OFFSET 0.000000 0.000000 0.000000
		CHANNELS 3 Zrotation Yrotation Xrotation
		JOINT Spine
		{
			OFFSET 0.000000 7.722015 1.166203
			CHANNELS 3 Zrotation Yrotation Xrotation
			JOINT Spine1
			{
				OFFSET 0.000000 12.024086 0.248766
				CHANNELS 3 Zrotation Yrotation Xrotation
				JOINT Spine2
				{
					OFFSET -0.000000 11.503036 -0.491240
					CHANNELS 3 Zrotation Yrotation Xrotation
					JOINT Neck_virtual
					{
						OFFSET 0.000000 0.000000 0.000000
						CHANNELS 3 Zrotation Yrotation Xrotation
						JOINT Neck
						{
							OFFSET 0.000000 18.430687 -3.123054
							CHANNELS 3 Zrotation Yrotation Xrotation
							JOINT Head
							{
								OFFSET -0.000000 9.051071 1.034021
								CHANNELS 3 Zrotation Yrotation Xrotation
								End Site
								{
									OFFSET 0.000000 0.000000 0.000000
								}
							}
						}
					}
					JOINT LeftShoulder_virtual
					{
						OFFSET 0.000000 0.000000 0.000000
						CHANNELS 3 Zrotation Yrotation Xrotation
						JOINT LeftShoulder
						{
							OFFSET 6.197824 13.665230 -4.064723
							CHANNELS 3 Zrotation Yrotation Xrotation
							JOINT LeftArm
							{
								OFFSET 7.778132 -0.187073 -1.709282
								CHANNELS 3 Zrotation Yrotation Xrotation
								JOINT LeftForeArm
								{
									OFFSET 21.954697 0.000000 -2.041093
									CHANNELS 3 Zrotation Yrotation Xrotation
									JOINT LeftHand
									{
										OFFSET 22.992908 0.000000 -0.870901
										CHANNELS 3 Zrotation Yrotation Xrotation
										End Site
										{
											OFFSET 0.000000 0.000000 0.000000
										}
									}
								}
							}
						}
					}
					JOINT RightShoulder_virtual
					{
						OFFSET 0.000000 0.000000 0.000000
						CHANNELS 3 Zrotation Yrotation Xrotation
						JOINT RightShoulder
						{
							OFFSET -6.197824 13.665230 -4.064723
							CHANNELS 3 Zrotation Yrotation Xrotation
							JOINT RightArm
							{
								OFFSET -7.778132 -0.187073 -1.709282
								CHANNELS 3 Zrotation Yrotation Xrotation
								JOINT RightForeArm
								{
									OFFSET -21.954697 0.000000 -2.041093
									CHANNELS 3 Zrotation Yrotation Xrotation
									JOINT RightHand
									{
										OFFSET -22.992908 0.000000 -0.870901
										CHANNELS 3 Zrotation Yrotation Xrotation
										End Site
										{
											OFFSET 0.000000 0.000000 0.000000
										}
									}
								}
							}
						}
					}
				}
			}
		}
	}
}
MOTION
Frames: 5
Frame Time: 0.033333
22.531191 78.453354 -5.545863 179.755129 1.891455 -179.562600 -1.956509 -0.583191 11.696253 -2.187955 -0.439544 -34.163250 11.582395 2.004797 33.113669 -10.708002 -0.923136 -9.169587 0.000000 0.000000 0.000000 1.212894 -0.354059 12.383783 -3.794194 14.146898 -34.815353 -1.566892 -1.996131 48.515967 11.463218 14.462536 -13.554756 0.000000 0.000000 0.000000 5.235041 1.962074 -8.983304 -2.300237 0.056580 -5.413021 -0.781284 -1.686380 11.399259 0.041492 0.067862 -0.030194 -0.854696 -0.367074 10.513728 2.559211 -0.422443 -3.239196 0.000000 0.000000 0.000000 0.585882 0.238349 7.548338 -15.156542 -8.614390 3.537978 -55.943115 -5.895306 10.197092 -0.690712 -13.395863 4.130418 0.000000 0.000000 0.000000 -3.736619 1.796429 6.803974 26.602906 3.774511 9.764613 46.705981 8.526191 9.956866 -5.033872 18.666827 -2.181144 0.000000 0.000000 0.000000 
22.605396 78.482643 -5.408728 179.679956 1.800468 -179.419371 -1.918193 -0.237376 12.185893 -2.155371 -0.339239 -33.816499 11.728590 2.342192 33.293214 -10.581780 -0.685971 -8.904016 0.000000 0.000000 0.000000 1.493045 0.067115 12.695176 -3.576286 13.822754 -35.088137 -1.463014 -2.302167 48.715990 11.706691 14.679082 -13.021456 0.000000 0.000000 0.000000 5.097500 2.073144 -8.691339 -2.386408 0.001926 -5.265486 -0.823993 -1.676783 11.224176 0.040345 0.083116 0.099174 -0.751893 -0.253515 10.543300 2.665243 -0.463996 -3.371710 0.000000 0.000000 0.000000 0.631496 0.230629 7.503162 -15.184897 -8.736754 3.517451 -56.012930 -6.227771 10.200283 -0.665034 -13.347518 4.092174 0.000000 0.000000 0.000000 -3.699967 1.831842 6.724161 26.642123 3.588620 9.653641 46.642368 8.381035 10.108915 -5.178973 18.639600 -2.260651 0.000000 0.000000 0.000000 
22.709221 78.509117 -5.260325 179.651788 1.462593 -179.557491 -1.857929 -0.120767 12.385349 -1.975045 -0.526621 -34.007758 11.502868 2.287909 33.163082 -10.749668 -0.750481 -9.178003 0.000000 0.000000 0.000000 1.630036 0.187310 13.101554 -3.663996 13.609399 -35.488365 -1.554740 -2.490709 48.839172 11.720864 14.627864 -12.661581 0.000000 0.000000 0.000000 5.015794 2.171679 -8.229011 -2.372194 -0.092320 -5.061727 -0.835526 -1.667113 11.224823 0.033313 0.086090 0.035400 -0.841806 -0.246791 10.525861 2.535003 -0.288063 -3.302171 0.000000 0.000000 0.000000 0.678553 0.194905 7.470446 -15.288964 -8.628728 3.547832 -56.090705 -6.485721 10.360436 -0.542014 -13.368798 3.981423 0.000000 0.000000 0.000000 -3.754187 1.881118 6.784388 26.603717 3.710047 9.622067 46.701514 8.102282 10.372165 -5.203323 18.685977 -2.351059 0.000000 0.000000 0.000000 
22.834393 78.519821 -5.168170 179.630861 0.651227 -179.680420 -1.795261 0.058802 12.546299 -1.710499 -0.749851 -34.224640 11.221506 2.169767 33.075556 -11.019194 -0.906582 -9.566563 0.000000 0.000000 0.000000 1.804697 0.401936 13.523337 -3.655690 13.105957 -35.815736 -1.682858 -2.784677 48.963618 11.733832 14.533958 -12.339373 0.000000 0.000000 0.000000 4.932091 2.502395 -7.797737 -2.317318 -0.175405 -4.902128 -0.853901 -1.657130 11.176461 -0.027052 0.086350 0.080929 -0.923391 -0.251164 10.299527 2.395234 -0.148795 -3.222531 0.000000 0.000000 0.000000 0.554353 0.280763 7.222583 -15.155884 -8.588691 3.568101 -56.248903 -6.792688 10.557889 -0.398784 -13.004783 3.993681 0.000000 0.000000 0.000000 -3.774261 1.870159 6.729991 26.670716 3.804909 9.626144 46.794227 7.825290 10.566995 -5.088006 18.681387 -2.327167 0.000000 0.000000 0.000000 
22.918604 78.539116 -5.116495 179.611722 -0.654440 -179.761058 -1.800077 0.332360 12.713646 -1.425905 -0.949191 -34.347259 10.830362 1.896862 33.098219 -11.370000 -1.125869 -10.014265 0.000000 0.000000 0.000000 1.933051 0.732063 13.883613 -3.560554 12.401808 -36.090248 -1.814213 -3.039272 48.930785 11.746582 14.407195 -12.076888 0.000000 0.000000 0.000000 4.791963 2.747635 -7.334322 -2.247075 -0.212666 -4.862361 -0.900238 -1.569458 11.130058 0.058794 0.018503 -0.068855 -0.999337 -0.312981 10.228756 2.217246 -0.034311 -3.114646 0.000000 0.000000 0.000000 0.503551 0.387880 7.186710 -15.030564 -8.536513 3.597742 -56.379366 -6.814200 10.786123 -0.314118 -12.628022 4.131432 0.000000 0.000000 0.000000 -3.926242 1.941432 6.521480 26.691881 3.680908 9.591575 47.154588 7.494058 10.674812 -5.133180 18.769075 -2.436857 0.000000 0.000000 0.000000 
